<svg xmlns="http://www.w3.org/2000/svg" viewBox="0 0 48 48">
  <g fill="#2496ed">
    <rect x="14" y="19" width="6" height="6" rx="1"/>
    <rect x="21" y="19" width="6" height="6" rx="1"/>
    <rect x="28" y="19" width="6" height="6" rx="1"/>
    <rect x="14" y="12" width="6" height="6" rx="1"/>
    <rect x="21" y="12" width="6" height="6" rx="1"/>
    <rect x="21" y="5" width="6" height="6" rx="1"/>
    <path d="M3 27h37c0 7-5 12-13 12H15C8 39 3 34 3 28z"/>
    <path d="M40 22c2-2 5-2 6 1-1 3-4 4-6 2z"/>
  </g>
</svg>
